<?xml version="1.0" standalone="no"?><!DOCTYPE svg PUBLIC "-//W3C//DTD SVG 1.1//EN" "http://www.w3.org/Graphics/SVG/1.1/DTD/svg11.dtd"><svg t="1608724771300" class="icon" viewBox="0 0 1024 1024" version="1.1" xmlns="http://www.w3.org/2000/svg" p-id="13650" xmlns:xlink="http://www.w3.org/1999/xlink" width="200" height="200"><defs><style type="text/css"></style></defs><path d="M218.8 792.5c61.7 129.1 288.5 181.7 476.6 63.4 88.7-55.8 140-138.7 182.4-214.4C921.3 563.9 958 491 926 424.1 864.3 295 735.4 277.7 544.8 382.2c-82.6 45.3-175 168.7-220.6 230.6-70.8 96-143 101-105.4 179.7z" fill="#FCCB2B" p-id="13651"></path><path d="M906.8 389.1l43.1-36.4c6-5.4 6.3-15.2 0.6-21.8-5.7-6.6-15.2-7.6-21.2-2.2l-43.1 36.4" fill="" p-id="13652"></path><path d="M470.5 929c-35.1 0-69.7-4.7-102.6-14.2-72.6-21-129.3-64.5-155.4-119.2-26.8-56.1-1.3-79.1 37.3-113.9 19.8-17.9 44.5-40.2 68.7-73C359.3 553.1 455 423.3 541.3 376c114.2-62.6 208.2-82.7 279.5-59.7 48.3 15.6 85.8 50.8 111.6 104.8 32.8 68.7-2.5 142.1-48.3 223.9-42.2 75.3-94.7 160.3-184.8 217-70 43.9-150.7 67-228.8 67zM225.3 789.4c24.4 51.1 77.8 91.8 146.5 111.7 102.1 29.6 221.8 10.4 319.9-51.3C779 795 830.4 711.7 871.7 638c43.9-78.3 77.8-148.2 47.9-210.8-24-50.3-58.7-83.1-103.1-97.4-67.4-21.7-157.7-2-268.3 58.7-83.6 45.8-178 173.9-218.3 228.6-25.1 34-50.3 56.8-70.7 75.1-37.4 33.7-56.2 50.7-33.9 97.2z" fill="" p-id="13653"></path><path d="M920.4 320.6c2.5-11.9-13.6-46.6-14-57.6-2.8-76.7-72.1-128.7-151.9-140.3-63.3-9.2-178.6-9-327.6 46.7-170.6 63.9-246.5 135.7-343.4 226.5-10.5 9.8-3.4 17.4 4 14.9 166.5-56.6 329.3-14.9 438.1-22.2 100.8-6.8 190.8-11.7 246.5-21.4 71.6-12.4 93.8-11.9 110.4-35.8 5.5-8 15.5-11.9 25-9.7 7.7 1.7 11.5 2.5 12.9-1.1z" fill="#66CC54" p-id="13654"></path><path d="M934.5 329.3s-2.9-0.7-7.6-5.9c0-0.1 0.1-0.2 0.1-0.3l0.3-1.1c1.7-8.2-2.1-20.7-8-38.7-2.6-8-5.6-17-5.8-20.6-3.2-86.2-81.6-136-158-147-55.2-8-171.7-12.5-331.1 47.1-170.8 63.9-247.2 135.4-343.9 226l-2 1.8C69.9 398.8 70 407 73 412c2.4 4.1 6.9 6.4 11.7 6.4 1.7 0 3.4-0.3 5.2-0.9 112.6-38.3 221.5-31.2 317.7-24.9 43.1 2.8 83.7 5.4 118.6 3.1l40.9-2.7c84.7-5.6 157.9-10.4 206.3-18.7 11.7-2 22-3.7 31.3-5.2 48.4-7.9 68.4-11.1 84.1-34.1 3.6-5.3 10.3-7.9 16.7-6.4 2.8 0.6 5.7 1.3 8.5 1.5 10.5 13.3 18.7 13.8 21.6 13.5 3.9-0.5 7.1-4.1 6.6-8-0.6-4-3.7-6.8-7.7-6.3z m-505-153.2c108.1-40.4 195.9-50.9 257.5-50.9 27.5 0 49.9 2.1 66.5 4.5 70.5 10.3 143 55.5 145.8 133.6 0.2 5.4 2.9 13.8 6.2 23.5-16.2-26.2-41.3-45.7-75-58-28.7-10.4-62.7-15.2-99.8-15.8-9.3-14.2-48.8-62.8-157.2-65.2-3.7 0-7.2 3-7.3 7-0.1 3.9 3 7.2 7 7.3 85 1.9 124.4 34 139.4 51-70.9 1.4-152.1 16.8-232.2 38.3-14.4-7.2-78.7-36.7-154.6-29.7 30.5-15.8 64.5-30.9 103.7-45.6z m-103.4 59.6c56-5.3 106.7 11 132.6 21.4-157.8 44.5-307 109.5-358.6 132.9 67.6-63.3 127-117.2 219.7-165.6-1 1.3-1.5 3-1.4 4.8 0.3 4.1 3.6 7 7.7 6.5z m550.8 91.2c-12.2 17.9-27.9 20.5-74.6 28-9.3 1.5-19.7 3.2-31.5 5.2-47.6 8.3-120.5 13-204.8 18.6l-41 2.7c-33.9 2.3-74.1-0.3-116.7-3.1-78.6-5.1-173.4-11.2-271.2 11 57.8-25 159.6-66.7 270.9-101.6-12.1 11.9-33.5 29.1-70 48.5-3.5 1.8-4.8 6.2-2.9 9.6 1.3 2.4 3.7 3.8 6.3 3.8 1.1 0 2.3-0.3 3.3-0.8 60.8-32.4 82.5-59.7 88.5-68.8 83.8-25.1 171.3-45.4 248.4-51.2-21.3 28.7-80.7 101.3-156.2 132.9-3.6 1.5-5.3 5.7-3.8 9.3 1.1 2.7 3.8 4.4 6.6 4.4 0.9 0 1.8-0.2 2.7-0.5C621.6 337 687.6 245.8 700 227.8c47.7-2.1 90.8 1.7 125.5 14.3 35.6 12.9 60.6 34.5 74.3 64.2 1.3 2.9 2.7 5.5 4 7.9-10.5-0.6-20.9 3.9-26.9 12.7z" fill="" p-id="13655"></path></svg>